<?xml version="1.0" encoding="utf-8"?>
<!-- Generator: Adobe Illustrator 25.0.0, SVG Export Plug-In . SVG Version: 6.00 Build 0)  -->
<svg version="1.1" id="Layer_1" xmlns="http://www.w3.org/2000/svg" xmlns:xlink="http://www.w3.org/1999/xlink" x="0px" y="0px"
	 viewBox="0 0 253.8 145.8" style="enable-background:new 0 0 253.8 145.8;" xml:space="preserve">
<style type="text/css">
	.st0{fill:#C4087E;}
	.st1{fill:#EC8A03;}
	.st2{fill:#744A96;}
	.st3{fill-rule:evenodd;clip-rule:evenodd;fill:#004B94;}
</style>
<g>
	<path class="st0" d="M62.9,134.8h-2.6c0-1.1-0.7-1.7-1.6-1.7s-1.5,0.5-1.5,1.4c0,1,0.7,1.3,2.3,1.9c2.8,1,3.8,2.1,3.8,4.1
		c0,2.6-1.9,4-4.4,4c-3,0-4.6-1.8-4.7-4.3h2.6c0.1,1.3,0.8,2,2.1,2c1.1,0,1.7-0.6,1.7-1.5s-0.7-1.4-2.4-2c-2.4-0.8-3.8-1.9-3.8-4.1
		c0-2.3,1.6-4,4.2-4C61.2,130.8,62.8,132.1,62.9,134.8z"/>
	<path class="st0" d="M68.9,133.5v2.8h4.4v2.4h-4.4v3.2H74v2.4h-7.7V131H74v2.4H68.9z"/>
	<path class="st0" d="M85.8,144.3l-5.5-8.1l-0.5-0.9v8.9h-2.6V131h2.6l5.5,8.1l0.6,0.9v-9h2.6v13.3H85.8z"/>
	<path class="st0" d="M97.9,133.5v10.9h-2.6v-10.9H91V131h11.3v2.4H97.9z"/>
	<path class="st0" d="M104.6,130.4l1.8-2.3h3.4l-2.7,2.3H104.6z M104.8,144.3V131h2.6v13.3H104.8z"/>
	<path class="st1" d="M121.6,133.5v10.9H119v-10.9h-4.3V131H126v2.4H121.6z"/>
	<path class="st1" d="M133.8,144.6c-3.5,0-5.4-2.1-5.4-5.6v-8h2.6v8c0,2,0.9,3.2,2.8,3.2c1.9,0,2.8-1.2,2.8-3.2v-8h2.6v8
		C139.2,142.5,137.2,144.6,133.8,144.6z"/>
	<path class="st2" d="M159.7,135.3h-2.9c-0.5-1.3-1.5-2.1-3.3-2.1c-2.4,0-4,1.9-4,4.4c0,2.6,1.6,4.5,4,4.5c1.9,0,2.9-0.9,3.4-2.2
		h2.7c-0.7,2.9-2.7,4.7-6.1,4.7c-3.9,0-6.7-2.9-6.7-6.9c0-4,2.8-6.9,6.7-6.9C157,130.8,159,132.6,159.7,135.3z"/>
	<path class="st2" d="M171.3,144.3l-1.1-2.9h-5.3l-1.1,2.9h-2.8l5.2-13.3h2.9l5.2,13.3H171.3z M165.7,139.1h3.7l-1.6-4.2l-0.2-0.7
		l-0.2,0.7L165.7,139.1z"/>
	<path class="st2" d="M184.3,134.8h-2.6c0-1.1-0.7-1.7-1.6-1.7s-1.5,0.5-1.5,1.4c0,1,0.7,1.3,2.3,1.9c2.8,1,3.8,2.1,3.8,4.1
		c0,2.6-1.9,4-4.4,4c-3,0-4.6-1.8-4.7-4.3h2.6c0.1,1.3,0.8,2,2.1,2c1.1,0,1.7-0.6,1.7-1.5s-0.7-1.4-2.4-2c-2.4-0.8-3.8-1.9-3.8-4.1
		c0-2.3,1.6-4,4.2-4C182.6,130.8,184.2,132.1,184.3,134.8z"/>
	<path class="st2" d="M196.4,144.3l-1.1-2.9H190l-1.1,2.9h-2.8l5.2-13.3h2.9l5.2,13.3H196.4z M190.9,139.1h3.7l-1.6-4.2l-0.2-0.7
		l-0.2,0.7L190.9,139.1z"/>
</g>
<g>
	<g>
		<g>
			<path class="st3" d="M162.8,15.1c-0.9-6.1-2.6-5.4-6.7-2c-2.6,2.1-5.2,3.3-7.4,4.1c2.3,13.7-1.9,29.2-12.7,38
				c3.5-1.5,7-3.6,10.3-6.2C155.4,41.5,164.6,27.3,162.8,15.1 M147.1,28.4c0.3-6.8-0.5-15.2-3.8-21.3c-3.3-6.1-5.7-4.6-8.1-0.4
				c-3.9,6.8-9.8,10.5-14.7,16.3c-2,2.4-3.4,5-3.3,7.8c0.1,2.6,1.9,4.8,4.9,6.6c2,1.2,4.2,2.6,5.2,4.7c-1.3-1.1-2.7-2-4.2-2.7
				c-4.3-2-7.4-1.1-11.2,1.5c-3.8,2.5-7.6,5.9-10.4,9.5c-2.6,3.4-3.7,6.4,3.2,8.8c9.4,3.4,23.8,1.7,30.7-4.2
				c3.9-3.4,6.8-8.2,8.9-13.2C145.9,37.8,146.9,33.2,147.1,28.4 M144.7,53.4c-5,0.5-9.9,2.5-14.8,6.1c-4.3,3.1-7.5,6.7-9.8,10.8
				c-0.2,0.4-0.5,0.8-0.6,1.2c0,0.2-0.1,0.3,0,0.3c0.1,0,0.2-0.1,0.3-0.2c0.3-0.4,0.6-0.8,0.9-1.2c3-3.8,7.2-7.1,11.7-9.2
				c3.8-1.7,8.7-2.9,12.6-3.1c3.3-0.2,4.4-1.6,4.4-2.8C149.4,53.9,147.5,53.1,144.7,53.4"/>
			<path class="st3" d="M224.4,96.2c0,6.7,0.8,11.5,2.3,14.2c1.5,2.7,4.3,5.1,8.3,7.1h-12.8c-2.6-1.8-4.4-4-5.5-6.5
				c-1.1-2.5-1.6-7.1-1.6-13.6V73.5h-10.5v-7.2h10.5V50.8l9.2-2.4v17.9h14v7.2h-14V96.2z M190.9,96.2c0,6.7,0.8,11.5,2.3,14.2
				c1.5,2.7,4.3,5.1,8.3,7.1h-12.8c-2.6-1.8-4.4-4-5.5-6.5c-1.1-2.5-1.6-7.1-1.6-13.6V73.5h-10.5v-7.2h10.5V50.8l9.2-2.4v17.9h13.8
				v7.2h-13.8V96.2z M166.2,102.5l-0.5,9c-3.1,2.3-6.4,4.1-9.9,5.3c-3.4,1.2-7,1.8-10.7,1.8c-7.6,0-13.8-2.4-18.7-7.2
				c-4.9-4.8-7.3-11-7.3-18.6c0-8.4,2.6-15.4,7.8-20.8c5.2-5.4,11.7-8.2,19.6-8.2c7,0,12.5,2.1,16.6,6.3c4.1,4.2,6.1,10,6.1,17.3
				c0,0.2,0,0.6-0.1,1c0,0.5,0,0.9,0,1.2l-1.1,2.3l-40.1,1.3c0.5,5.8,2.2,10.2,5.3,13.3c3.1,3.1,7.2,4.6,12.4,4.6
				c3.3,0,6.6-0.7,10-2.2C158.9,107.7,162.5,105.5,166.2,102.5 M160.9,85.8c-0.1-4.6-1.6-8.2-4.3-11c-2.7-2.8-6.2-4.1-10.5-4.1
				c-4.4,0-8.3,1.5-11.6,4.6c-3.3,3-5.3,7-6,11.9L160.9,85.8z M59.4,91.4c0-7.9,2.5-14.5,7.6-19.6C72,66.6,78.4,64,86.2,64
				c7.8,0,14.2,2.6,19.2,7.7c5,5.1,7.6,11.7,7.6,19.6c0,8-2.5,14.5-7.6,19.7c-5.1,5.2-11.5,7.7-19.2,7.7c-7.7,0-14.1-2.6-19.2-7.7
				C61.9,105.9,59.4,99.3,59.4,91.4 M68.5,91.4c0,6.2,1.6,11.3,4.8,15.1c3.2,3.8,7.5,5.7,12.7,5.7c5.2,0,9.5-1.9,12.8-5.7
				c3.3-3.8,4.9-8.8,4.9-15.1c0-6.2-1.6-11.2-4.9-15c-3.3-3.8-7.5-5.7-12.8-5.7c-5.2,0-9.5,1.9-12.7,5.7
				C70.1,80.2,68.5,85.1,68.5,91.4 M12.8,116.1v22.2l-9,2.4V66.3h9v2.5c2.8-1.4,5.6-2.4,8.3-3.1c2.7-0.7,5.2-1.1,7.5-1.1
				c7.6,0,13.8,2.4,18.3,7.3c4.6,4.8,6.8,11.3,6.8,19.4c0,8.2-2.5,14.9-7.4,19.9c-4.9,5-11.4,7.5-19.5,7.5c-2.1,0-4.3-0.2-6.5-0.6
				C18,117.6,15.6,117,12.8,116.1 M12.8,108.3c2.3,1.1,4.6,2,6.8,2.5c2.2,0.6,4.3,0.9,6.3,0.9c5.6,0,10.1-1.9,13.5-5.7
				c3.4-3.8,5.2-8.8,5.2-15c0-6-1.5-10.8-4.6-14.3c-3-3.5-7.2-5.3-12.4-5.3c-2,0-4.2,0.4-6.5,1.1c-2.3,0.7-5.1,1.9-8.3,3.6V108.3z"
				/>
			<path class="st3" d="M244.2,113.1v-1.7h1.4l0.2,0l0.2,0l0.2,0l0.2,0.1l0.2,0.1l0.1,0.1l0.1,0.2l0,0.3l0,0.3l-0.1,0.2l-0.2,0.2
				l-0.3,0.1l-0.3,0.1l-0.3,0h-0.3l-0.3,0H244.2z M246.1,113.7l0.2,0l0.3-0.1l0.3-0.1l0.3-0.2l0.2-0.2l0.2-0.3l0.1-0.3l0-0.4l0-0.2
				l0-0.2l0-0.2l-0.1-0.2l-0.1-0.1l-0.1-0.1l-0.1-0.1l-0.1-0.1l-0.2-0.1l-0.2-0.1l-0.2,0l-0.2,0l-0.2,0l-0.2,0l-0.2,0l-0.2,0h-2.4
				v5.3h0.8v-2.4h1.1l1.5,2.4h0.9L246.1,113.7z M245.2,118.1l0.5,0l0.5-0.1l0.5-0.1l0.4-0.2l0.4-0.2l0.4-0.2l0.4-0.3l0.3-0.3
				l0.3-0.3l0.3-0.4l0.2-0.4l0.2-0.4l0.2-0.4l0.1-0.5l0.1-0.5l0-0.5l0-0.5l-0.1-0.5l-0.1-0.4l-0.2-0.4l-0.2-0.4l-0.2-0.4l-0.3-0.4
				l-0.3-0.3l-0.3-0.3l-0.4-0.3l-0.4-0.2l-0.4-0.2l-0.4-0.2l-0.5-0.1l-0.5-0.1l-0.5,0l-0.5,0l-0.5,0.1l-0.5,0.1l-0.4,0.2l-0.4,0.2
				l-0.4,0.2l-0.4,0.3l-0.3,0.3l-0.3,0.3l-0.3,0.4l-0.2,0.4l-0.2,0.4l-0.2,0.4l-0.1,0.4l-0.1,0.5l0,0.5l0,0.5l0.1,0.5l0.1,0.5
				l0.2,0.4l0.2,0.4l0.2,0.4l0.3,0.4l0.3,0.3l0.3,0.3l0.4,0.3l0.4,0.2l0.4,0.2l0.4,0.2l0.5,0.1l0.5,0.1L245.2,118.1z M245.2,117.5
				l-0.4,0l-0.4-0.1l-0.4-0.1l-0.4-0.1l-0.4-0.2l-0.3-0.2l-0.3-0.2l-0.3-0.3l-0.3-0.3l-0.2-0.3l-0.2-0.3l-0.2-0.3l-0.1-0.4l-0.1-0.4
				l-0.1-0.4l0-0.4l0-0.4l0.1-0.4l0.1-0.4l0.1-0.4l0.2-0.3l0.2-0.3l0.2-0.3l0.3-0.3l0.3-0.3l0.3-0.2l0.3-0.2l0.4-0.2l0.4-0.1
				l0.4-0.1l0.4-0.1l0.4,0l0.4,0l0.4,0.1l0.4,0.1l0.4,0.1l0.4,0.2l0.3,0.2l0.3,0.2l0.3,0.3l0.3,0.3l0.2,0.3l0.2,0.3l0.2,0.3l0.1,0.4
				l0.1,0.4l0.1,0.4l0,0.4l0,0.4l-0.1,0.4l-0.1,0.4L249,115l-0.2,0.3l-0.2,0.3l-0.2,0.3l-0.3,0.3l-0.3,0.3l-0.3,0.2l-0.3,0.2
				l-0.4,0.2l-0.4,0.1l-0.4,0.1l-0.4,0.1L245.2,117.5z"/>
		</g>
	</g>
</g>
</svg>
